HIERARCHY
ROOT Hips
{
 OFFSET 0.000000 0.000000 0.000000
 CHANNELS 6 Xposition Yposition Zposition Yrotation Xrotation Zrotation
 JOINT Chest
 {
  OFFSET 0.000000 9.588913 -0.003946
  CHANNELS 3 Yrotation Xrotation Zrotation
  JOINT Chest2
  {
   OFFSET 0.000000 9.541882 0.008053
   CHANNELS 3 Yrotation Xrotation Zrotation
   JOINT Chest3
   {
    OFFSET 0.000000 9.501360 0.000000
    CHANNELS 3 Yrotation Xrotation Zrotation
    JOINT Chest4
    {
     OFFSET 0.000000 9.491660 0.000000
     CHANNELS 3 Yrotation Xrotation Zrotation
     JOINT Neck
     {
      OFFSET 0.000000 14.331917 0.000000
      CHANNELS 3 Yrotation Xrotation Zrotation
      JOINT Head
      {
       OFFSET 0.000000 8.884799 0.017034
       CHANNELS 3 Yrotation Xrotation Zrotation
       End Site
       {
        OFFSET 0.000000 16.896195 0.008993
       }
      }
     }
     JOINT RightCollar
     {
      OFFSET -2.923010 9.499495 0.000000
      CHANNELS 3 Yrotation Xrotation Zrotation
      JOINT RightShoulder
      {
       OFFSET -13.795216 0.000000 0.000000
       CHANNELS 3 Yrotation Xrotation Zrotation
       JOINT RightElbow
       {
        OFFSET -30.272209 0.000000 0.000000
        CHANNELS 3 Yrotation Xrotation Zrotation
        JOINT RightWrist
        {
         OFFSET -24.478199 0.000000 0.000000
         CHANNELS 3 Yrotation Xrotation Zrotation
         End Site
         {
          OFFSET -18.090752 0.000000 0.000000
         }
        }
       }
      }
     }
     JOINT LeftCollar
     {
      OFFSET 2.923010 9.499495 0.000000
      CHANNELS 3 Yrotation Xrotation Zrotation
      JOINT LeftShoulder
      {
       OFFSET 13.795216 0.000000 0.000000
       CHANNELS 3 Yrotation Xrotation Zrotation
       JOINT LeftElbow
       {
        OFFSET 30.272209 0.000000 0.000000
        CHANNELS 3 Yrotation Xrotation Zrotation
        JOINT LeftWrist
        {
         OFFSET 24.478199 0.000000 0.000000
         CHANNELS 3 Yrotation Xrotation Zrotation
         End Site
         {
          OFFSET 18.090752 0.000000 0.000000
         }
        }
       }
      }
     }
    }
   }
  }
 }
 JOINT RightHip
 {
  OFFSET -7.826875 0.019532 0.001973
  CHANNELS 3 Yrotation Xrotation Zrotation
  JOINT RightKnee
  {
   OFFSET 0.000000 -40.546152 -0.001885
   CHANNELS 3 Yrotation Xrotation Zrotation
   JOINT RightAnkle
   {
    OFFSET 0.000000 -39.417092 -0.003189
    CHANNELS 3 Yrotation Xrotation Zrotation
    JOINT RightToe
    {
     OFFSET 0.000000 -7.579396 17.243563
     CHANNELS 3 Yrotation Xrotation Zrotation
     End Site
     {
      OFFSET 0.000000 -1.500329 6.694466
     }
    }
   }
  }
 }
 JOINT LeftHip
 {
  OFFSET 7.826875 0.019532 0.001973
  CHANNELS 3 Yrotation Xrotation Zrotation
  JOINT LeftKnee
  {
   OFFSET 0.000000 -40.546152 -0.001885
   CHANNELS 3 Yrotation Xrotation Zrotation
   JOINT LeftAnkle
   {
    OFFSET 0.000000 -39.417092 -0.003189
    CHANNELS 3 Yrotation Xrotation Zrotation
    JOINT LeftToe
    {
     OFFSET 0.000000 -7.579396 17.243563
     CHANNELS 3 Yrotation Xrotation Zrotation
     End Site
     {
      OFFSET 0.000000 -1.500329 6.694466
     }
    }
   }
  }
 }
}
MOTION
Frames: 11
Frame Time: 0.008333
0.000000 87.345680 0.000000 0.000000 -5.767889 0.000000 0.000000 11.653876 0.000000 0.000000 -5.885988 0.000000 0.000000 -0.000000 0.000000 0.000000 -0.000000 0.000000 0.000000 12.528808 0.000000 0.000000 0.711711 0.000000 0.000000 -0.000000 0.000000 0.000000 -0.000000 0.000000 2.309063 -0.000000 0.000000 -2.309063 -0.000000 -0.000000 0.000000 -0.000000 0.000000 0.000000 0.000000 0.000000 -2.309063 0.000000 0.000000 2.309063 -0.000000 0.000000 0.000000 8.520374 0.000000 0.000000 1.905768 0.000000 -0.000000 -4.658254 0.000000 0.000000 -0.000000 0.000000 0.000000 8.520374 0.000000 0.000000 1.905768 0.000000 -0.000000 -4.658254 0.000000 0.000000 -0.000000 0.000000
-3.760934 87.676069 11.278199 -47.147565 -11.763896 -4.521041 5.587140 5.921343 5.256683 3.135683 3.450617 2.696795 3.946530 4.289500 3.401771 3.135690 3.450624 2.696799 -4.753321 5.912403 -6.504146 -3.796229 -19.649261 -6.257293 -4.070368 0.093955 -4.027576 -13.319493 3.022893 87.649620 54.124159 -3.520600 22.526709 11.610243 -7.305076 -1.831997 -10.041595 0.114528 2.570239 10.693515 9.007958 -95.483232 -28.472038 -11.979374 -19.240709 -9.538030 -2.382420 2.975485 -7.032234 15.745297 2.455134 0.631934 2.535855 0.221072 1.124526 -6.759613 0.117202 0.002426 0.590899 0.011075 3.206524 -3.934971 6.891700 -8.368526 33.517611 -1.204579 -3.053778 -17.419329 -2.287013 0.004100 -0.231953 0.016720
-3.739661 87.682793 11.372054 -47.145446 -11.807951 -4.492181 5.630481 5.935638 5.141131 3.161076 3.452895 2.644591 3.977822 4.292616 3.336748 3.161084 3.452903 2.644595 -4.900675 5.956008 -6.436046 -3.982234 -19.600827 -6.139643 -4.001903 0.044766 -4.028916 -13.378232 2.843957 87.443411 55.316041 -3.775080 22.799599 11.599573 -7.396716 -1.869214 -9.981445 0.118436 2.601247 11.175659 9.202541 -95.204668 -29.917422 -11.720793 -19.841599 -9.409404 -2.349000 3.039047 -7.101904 15.722059 2.350407 0.662447 2.717323 0.196516 1.140386 -6.865092 0.187986 -0.003446 0.570202 0.011844 3.210444 -3.766328 6.807073 -8.332574 33.364397 -1.193168 -3.003437 -17.409283 -2.236627 -0.004314 -0.210574 0.012510
-3.715637 87.690660 11.479492 -47.143009 -11.850822 -4.465064 5.676797 5.947496 5.024265 3.188580 3.455369 2.590944 4.011740 4.295980 3.269945 3.188589 3.455377 2.590949 -5.054499 6.005464 -6.355939 -4.178388 -19.545721 -6.006276 -3.932128 -0.015778 -4.027234 -13.428567 2.635816 87.202357 56.507929 -4.082712 23.078488 11.580929 -7.498301 -1.901610 -9.925278 0.119586 2.632320 11.660915 9.371969 -94.900366 -31.422297 -11.434474 -20.415280 -9.281217 -2.306906 3.101244 -7.177013 15.701316 2.236568 0.697806 2.898789 0.175198 1.150222 -6.970176 0.263157 -0.005907 0.546239 0.014177 3.213073 -3.590170 6.723197 -8.294718 33.202568 -1.182437 -2.986952 -17.394994 -2.176413 -0.012085 -0.193708 0.011211
-3.689698 87.699322 11.596752 -47.137289 -11.889536 -4.438521 5.722541 5.955333 4.905895 3.216069 3.457058 2.535130 4.045613 4.298391 3.200424 3.216078 3.457066 2.535135 -5.210347 6.059224 -6.265492 -4.379151 -19.485672 -5.860363 -3.852462 -0.081350 -4.024212 -13.489670 2.389078 86.924007 57.697235 -4.431255 23.372775 11.554060 -7.605300 -1.948826 -9.870544 0.120555 2.661718 12.137490 9.514295 -94.577421 -32.996167 -11.104478 -20.941548 -9.163864 -2.257219 3.165695 -7.262138 15.680911 2.112572 0.743424 3.077637 0.159449 1.153777 -7.074441 0.340392 -0.006202 0.520227 0.017248 3.207883 -3.412238 6.633617 -8.254199 33.037479 -1.173583 -2.972441 -17.376776 -2.111141 -0.016729 -0.181140 0.012058
-3.660476 87.708035 11.721598 -47.127472 -11.917976 -4.395766 5.767809 5.956917 4.770504 3.242423 3.457187 2.476455 4.078026 4.298894 3.127300 3.242432 3.457196 2.476459 -5.366076 6.115831 -6.167232 -4.581464 -19.422346 -5.705518 -3.762712 -0.150369 -4.021305 -13.580371 2.095030 86.608002 58.882241 -4.790789 23.686202 11.524871 -7.711303 -2.010231 -9.822064 0.120295 2.687945 12.586002 9.626040 -94.246179 -34.641455 -10.748524 -21.404707 -9.050017 -2.194267 3.234837 -7.361562 15.651536 1.962483 0.796275 3.249343 0.149944 1.153430 -7.146470 0.418147 -0.004576 0.466306 0.021517 3.192988 -3.244415 6.519414 -8.210179 32.879831 -1.166914 -2.956463 -17.363162 -2.039027 -0.017249 -0.167386 0.013596
-3.632666 87.717010 11.848734 -47.102103 -11.943070 -4.364622 5.809136 5.957116 4.645989 3.267837 3.455888 2.414776 4.109226 4.297656 3.050398 3.267848 3.455898 2.414780 -5.522995 6.175106 -6.062274 -4.786581 -19.355989 -5.542796 -3.671990 -0.226132 -4.018413 -13.708940 1.751949 86.251881 60.061414 -5.136487 24.026002 11.504982 -7.814056 -2.089197 -9.785310 0.119442 2.711041 12.994971 9.701315 -93.914134 -36.347319 -10.395699 -21.798903 -8.925948 -2.110035 3.294982 -7.473899 15.625469 1.817752 0.853315 3.422880 0.146407 1.150205 -7.255174 0.493141 -0.004093 0.442860 0.025266 3.157524 -3.077421 6.418096 -8.169027 32.715795 -1.163502 -2.963181 -17.335063 -1.962227 -0.018998 -0.163187 0.014091
-3.604780 87.725558 11.977657 -47.063431 -11.962383 -4.329330 5.848554 5.954615 4.517874 3.292135 3.453165 2.350427 4.138995 4.294676 2.970132 3.292147 3.453175 2.350431 -5.680637 6.238349 -5.951870 -4.993610 -19.285148 -5.373748 -3.581759 -0.310024 -4.017831 -13.879673 1.361099 85.857803 61.236111 -5.461968 24.393273 11.494986 -7.914107 -2.191183 -9.760475 0.117139 2.730618 13.365986 9.742432 -93.581644 -38.098866 -10.060396 -22.134372 -8.787891 -2.007474 3.328075 -7.597214 15.594871 1.665357 0.915034 3.598033 0.145033 1.141112 -7.369091 0.569162 -0.004452 0.421295 0.027685 3.106710 -2.918033 6.309985 -8.130843 32.555302 -1.162515 -2.979878 -17.303151 -1.883045 -0.019955 -0.161726 0.015207
-3.577326 87.733285 12.106401 -47.012597 -11.974790 -4.293804 5.886276 5.949286 4.388378 3.315667 3.449100 2.283781 4.167775 4.290054 2.886974 3.315679 3.449110 2.283785 -5.839009 6.305766 -5.836631 -5.202402 -19.209611 -5.199116 -3.490105 -0.404318 -4.021106 -14.091621 0.924690 85.431946 62.405778 -5.774491 24.777294 11.493158 -8.015142 -2.309645 -9.746787 0.111915 2.746339 13.712636 9.754407 -93.245017 -39.890695 -9.750357 -22.433517 -8.630616 -1.893136 3.340232 -7.723416 15.555078 1.514828 0.977858 3.781073 0.141352 1.125757 -7.489764 0.646478 -0.005179 0.400542 0.029555 3.046809 -2.768808 6.190048 -8.095702 32.402486 -1.161218 -2.961245 -17.270925 -1.809019 -0.016450 -0.160544 0.017928
-3.550810 87.739947 12.234309 -46.952661 -11.983495 -4.259375 5.922630 5.943444 4.255829 3.338833 3.444957 2.214530 4.196076 4.285370 2.800555 3.338847 3.444969 2.214535 -5.998043 6.376654 -5.714402 -5.413405 -19.130152 -5.016475 -3.395674 -0.510847 -4.023979 -14.338720 0.438611 84.978992 63.561417 -6.084392 25.171741 11.504969 -8.118488 -2.441719 -9.741683 0.100515 2.762876 14.047827 9.741683 -92.904206 -41.716096 -9.477123 -22.712288 -8.453346 -1.769689 3.348161 -7.842213 15.504397 1.371626 1.033152 3.980929 0.132994 1.105967 -7.620286 0.724945 -0.005713 0.379869 0.031333 2.986977 -2.628261 6.067294 -8.073674 32.256843 -1.160313 -2.939167 -17.239778 -1.734019 -0.011976 -0.159666 0.019209
-3.525659 87.745442 12.361769 -46.885899 -11.994874 -4.224866 5.957259 5.939018 4.117180 3.361259 3.441300 2.142621 4.223429 4.281330 2.710809 3.361273 3.441312 2.142625 -6.156194 6.453698 -5.582952 -5.625201 -19.043712 -4.823530 -3.295419 -0.624133 -4.022091 -14.614890 -0.100650 84.500313 64.698611 -6.400352 25.571058 11.526911 -8.219912 -2.591947 -9.739002 0.083194 2.784376 14.373919 9.708028 -92.561242 -43.562144 -9.252097 -22.976358 -8.259874 -1.645660 3.355497 -7.952048 15.446924 1.234063 1.079945 4.202053 0.119628 1.083675 -7.762831 0.805301 -0.006780 0.359324 0.032486 2.931939 -2.490021 5.952904 -8.069492 32.115015 -1.164127 -2.960764 -17.209694 -1.647745 -0.011613 -0.159198 0.016163
